<?xml version="1.0" encoding="UTF-8"?>
<svg width="199px" height="159px" viewBox="0 0 199 159" version="1.1" xmlns="http://www.w3.org/2000/svg" xmlns:xlink="http://www.w3.org/1999/xlink">
    <!-- Generator: Sketch 52.4 (67378) - http://www.bohemiancoding.com/sketch -->
    <title>bp</title>
    <desc>Created with Sketch.</desc>
    <g id="Page-1" stroke="none" stroke-width="1" fill="none" fill-rule="evenodd">
        <g id="Group" transform="translate(-32.000000, -62.000000)" fill="#FFFFFF">
            <path d="M37.4817187,62.5624375 C38.8337255,62.5624375 39.9517143,62.9784333 40.8357187,63.8104375 C41.7197232,64.6424417 42.1617187,65.7864302 42.1617187,67.2424375 L42.1617187,115.914438 C45.5937359,110.40241 50.2996888,106.060453 56.2797188,102.888438 C62.2597486,99.7164216 68.9416818,98.1304375 76.3257187,98.1304375 C84.5417598,98.1304375 91.9776855,100.028419 98.6337187,103.824437 C105.289752,107.620456 110.5157,112.846404 114.311719,119.502437 C118.107738,126.158471 120.005719,133.542397 120.005719,141.654438 C120.005719,149.870479 118.107738,157.306404 114.311719,163.962437 C110.5157,170.618471 105.289752,175.844419 98.6337187,179.640438 C91.9776855,183.436456 84.5417598,185.334438 76.3257187,185.334438 C68.3176787,185.334438 61.0117518,183.488456 54.4077188,179.796437 C47.8036857,176.104419 42.577738,170.98247 38.7297188,164.430437 C34.8816995,157.878405 32.9057193,150.598478 32.8017187,142.590438 L32.8017187,67.2424375 C32.8017187,65.7864302 33.2177146,64.6424417 34.0497187,63.8104375 C34.8817229,62.9784333 36.0257115,62.5624375 37.4817187,62.5624375 Z M76.3257187,176.598437 C82.773751,176.598437 88.5976928,175.064453 93.7977188,171.996438 C98.9977447,168.928422 103.105704,164.742464 106.121719,159.438437 C109.137734,154.134411 110.645719,148.20647 110.645719,141.654438 C110.645719,135.102405 109.137734,129.174464 106.121719,123.870438 C103.105704,118.566411 98.9977447,114.406453 93.7977188,111.390438 C88.5976928,108.374422 82.773751,106.866438 76.3257187,106.866438 C69.8776865,106.866438 64.0537447,108.374422 58.8537187,111.390438 C53.6536928,114.406453 49.5717336,118.566411 46.6077188,123.870438 C43.6437039,129.174464 42.1617187,135.102405 42.1617187,141.654438 C42.1617187,148.20647 43.6437039,154.134411 46.6077188,159.438437 C49.5717336,164.742464 53.6536928,168.928422 58.8537187,171.996438 C64.0537447,175.064453 69.8776865,176.598437 76.3257187,176.598437 Z M186.999052,98.1304375 C195.215093,98.1304375 202.651019,100.028419 209.307052,103.824437 C215.963085,107.620456 221.189033,112.846404 224.985052,119.502437 C228.781071,126.158471 230.679052,133.594396 230.679052,141.810438 C230.679052,149.922478 228.781071,157.306404 224.985052,163.962437 C221.189033,170.618471 215.963085,175.844419 209.307052,179.640438 C202.651019,183.436456 195.215093,185.334438 186.999052,185.334438 C179.615015,185.334438 172.933082,183.748453 166.953052,180.576437 C160.973022,177.404422 156.267069,173.062465 152.835052,167.550437 L152.835052,216.222438 C152.835052,217.678445 152.419056,218.822433 151.587052,219.654438 C150.755048,220.486442 149.611059,220.902437 148.155052,220.902437 C146.803045,220.902437 145.685057,220.486442 144.801052,219.654438 C143.917048,218.822433 143.475052,217.678445 143.475052,216.222438 L143.475052,140.874437 C143.579053,132.866397 145.555033,125.58647 149.403052,119.034437 C153.251071,112.482405 158.477019,107.360456 165.081052,103.668437 C171.685085,99.976419 178.991012,98.1304375 186.999052,98.1304375 Z M186.999052,176.598437 C193.447084,176.598437 199.271026,175.090453 204.471052,172.074437 C209.671078,169.058422 213.779037,164.898464 216.795052,159.594437 C219.811067,154.290411 221.319052,148.36247 221.319052,141.810438 C221.319052,135.258405 219.811067,129.330464 216.795052,124.026437 C213.779037,118.722411 209.671078,114.536453 204.471052,111.468437 C199.271026,108.400422 193.447084,106.866438 186.999052,106.866438 C180.55102,106.866438 174.727078,108.400422 169.527052,111.468437 C164.327026,114.536453 160.245067,118.722411 157.281052,124.026437 C154.317037,129.330464 152.835052,135.258405 152.835052,141.810438 C152.835052,148.36247 154.317037,154.290411 157.281052,159.594437 C160.245067,164.898464 164.327026,169.058422 169.527052,172.074437 C174.727078,175.090453 180.55102,176.598437 186.999052,176.598437 Z" id="bp"></path>
        </g>
    </g>
</svg>